<svg width="162" height="206" viewBox="0 0 162 206" fill="none" xmlns="http://www.w3.org/2000/svg">
<path d="M133.733 205.758C133.192 205.626 130.725 205.441 128.252 205.347C122.812 205.14 122.489 205.084 122.489 204.361C122.489 203.828 122.871 203.692 124.176 203.762C124.408 203.774 127.254 203.923 130.5 204.092C136.68 204.415 137.421 204.596 136.302 205.512C135.588 206.096 135.254 206.128 133.733 205.758ZM98.5972 202.429C98.5972 201.494 99.4842 201.334 103.938 201.464C106.18 201.529 110.417 201.48 113.354 201.355C116.292 201.229 119.644 201.212 120.803 201.317C127.184 201.892 142.086 201.734 147.942 201.029C150.107 200.768 151.739 201.618 150.205 202.207C149.304 202.553 123.12 202.605 116.306 202.274C113.333 202.129 110.608 202.158 108.716 202.353C101.684 203.078 98.5972 203.102 98.5972 202.429ZM26.0772 201.926C23.7178 200.943 26.0131 199.889 29.0443 200.563C30.4632 200.879 31.7239 200.982 32.7779 200.868C33.6531 200.773 37.9109 200.632 42.2396 200.554C46.5683 200.477 52.187 200.356 54.7255 200.286C60.0573 200.138 61.1913 200.484 59.3424 201.697C58.6678 202.139 58.5263 202.145 57.8667 201.762C56.6461 201.053 36.1398 201.195 27.9043 201.97C27.1313 202.042 26.3091 202.023 26.0772 201.926ZM101.108 199.557C99.8788 198.749 101.699 198.407 106.327 198.577C112.916 198.819 122.18 198.837 125.722 198.615C127.423 198.509 129.763 198.38 130.922 198.329C132.082 198.278 136.035 198.09 139.709 197.911C143.382 197.732 146.5 197.655 146.638 197.741C146.776 197.826 148.135 197.772 149.657 197.62C151.18 197.468 154.133 197.225 156.22 197.08C158.307 196.936 160.204 196.745 160.436 196.656C161.143 196.387 161.754 196.95 161.393 197.537C160.641 198.757 155.925 199.777 155.258 198.863C154.97 198.47 153.956 198.455 145.529 198.719C140.355 198.882 134.668 199.028 132.89 199.045C131.112 199.061 129.025 199.199 128.252 199.35C126.384 199.717 101.638 199.906 101.108 199.557ZM52.2182 199.22C51.8152 198.804 24.7033 198.507 19.6901 198.863C16.2125 199.11 15.1904 198.832 16.1316 197.892C16.4898 197.535 25.4918 197.544 34.9314 197.912C44.9677 198.302 53.9328 198.268 57.8399 197.825C61.6927 197.387 63.7259 197.414 64.0301 197.907C64.3147 198.368 63.5311 199.007 62.7317 198.966C62.4374 198.951 59.9832 199.035 57.2777 199.152C54.5723 199.269 52.2955 199.3 52.2182 199.22ZM1.1309 196.778C0.459193 196.491 0.259047 195.665 0.849819 195.618C1.04307 195.603 3.35148 195.565 5.97963 195.534C8.60777 195.504 13.6041 195.312 17.0825 195.107C22.6262 194.782 30.5965 194.655 40.4126 194.735C42.0358 194.748 46.4523 194.737 50.2269 194.71C57.2049 194.661 57.6909 194.732 56.9301 195.697C56.6085 196.106 56.1772 196.112 52.3587 195.767C47.1324 195.295 21.2689 195.214 17.5041 195.658C16.1128 195.822 14.0889 195.935 13.0068 195.91C11.9246 195.884 9.96401 196.056 8.64994 196.292C5.38028 196.879 1.8934 197.104 1.1309 196.778ZM96.0922 196.379C95.0686 195.145 95.9984 195.043 107.701 195.102C118.764 195.158 148.227 194.65 148.947 194.391C149.159 194.314 150.978 194.199 152.987 194.134C155.333 194.058 157.11 193.854 157.949 193.563C160.201 192.784 161.067 193.911 159.135 195.106C158.172 195.701 157.964 195.722 155.411 195.476C153.923 195.333 150.429 195.299 147.647 195.401C144.864 195.503 133.796 195.672 123.052 195.776C108.927 195.914 102.584 196.078 100.152 196.369C96.0903 196.855 96.4857 196.854 96.0922 196.379ZM84.3263 194.754C83.5867 194.014 84.9799 192.937 85.9226 193.52C86.0706 193.612 87.3702 193.551 88.8106 193.384C90.251 193.217 97.1216 193.036 104.078 192.98C111.56 192.92 117.416 192.753 118.414 192.571C119.341 192.401 122.377 192.275 125.16 192.289C127.943 192.304 131.484 192.241 133.03 192.149C134.576 192.057 138.181 191.927 141.041 191.858C143.901 191.79 148.32 191.599 150.86 191.434C155.509 191.132 156.111 191.213 155.773 192.093C155.321 193.273 151.928 193.9 151.14 192.95C150.814 192.556 149.993 192.525 144.149 192.683C140.507 192.781 132.504 192.972 126.364 193.106C120.225 193.24 115.053 193.442 114.872 193.554C114.691 193.666 109.343 193.8 102.986 193.852C96.6301 193.904 91.1133 194.002 90.7269 194.069C90.3404 194.136 89.1387 194.33 88.0565 194.501C86.9744 194.672 85.7701 194.877 85.3804 194.956C84.9907 195.035 84.5163 194.944 84.3263 194.754ZM60.9455 194.235C60.0341 194.02 59.7547 193.778 58.8585 192.428C58.5327 191.937 58.4069 191.919 57.6113 192.249C56.7114 192.622 55.4823 192.482 54.8198 191.932C54.0818 191.319 54.7299 187.763 55.6931 187.141C56.8309 186.405 57.718 187.749 56.8827 188.942C56.3431 189.713 56.2969 190.583 56.7955 190.583C57.3138 190.583 58.1155 189.1 58.3527 187.702C58.8414 184.823 60.6549 186.238 60.5119 189.387C60.3992 191.868 60.7442 192.552 62.1085 192.552C63.1666 192.552 63.342 192.008 62.8129 190.368C62.0348 187.957 61.925 186.412 62.4878 185.789C63.4761 184.696 64.4411 185.449 64.5644 187.408C64.5964 187.916 66.2719 189.739 66.7066 189.739C67.683 189.739 67.4863 187.972 66.3607 186.633C65.466 185.569 65.6625 184.818 66.767 185.079C67.5652 185.268 68.7984 186.518 68.8008 187.141C68.8022 187.526 70.4085 188.611 70.9806 188.612C71.505 188.614 71.3937 187.724 70.7698 186.926C70.4675 186.539 70.2173 186.121 70.2139 185.998C70.2041 185.647 68.7058 184.413 68.2781 184.403C68.0671 184.398 67.3018 184.071 66.5775 183.676L65.2605 182.959L63.8691 183.559C62.3173 184.229 58.3867 185.185 56.4067 185.374C54.552 185.552 53.2382 184.279 53.9797 183.023C54.5444 182.066 54.3736 181.29 52.9517 178.349C52.427 177.264 51.5933 174.794 51.0988 172.86C50.6044 170.926 50.025 168.711 49.8112 167.937C49.1231 165.447 48.5544 162.661 48.1459 159.78C47.9266 158.232 47.6654 156.63 47.5654 156.218C46.5737 152.132 50.2864 155.868 51.524 160.202C52.0321 161.981 52.6356 163.88 52.8652 164.421C54.0538 167.225 55.2872 172.687 55.9935 178.273C56.6605 183.549 57.0199 183.957 60.3696 183.25C61.0653 183.103 62.0293 182.907 62.5117 182.814C62.9941 182.72 63.9112 182.166 64.5495 181.582L65.7103 180.521V178.129C65.7103 176.8 65.411 174.128 65.0372 172.118C63.9086 166.051 63.372 162.152 63.3006 159.498C63.1833 155.14 61.4632 151.2 59.1048 149.887C58.4864 149.542 57.781 148.906 57.5373 148.472C56.8697 147.284 54.8009 147.245 51.6761 148.363C49.3093 149.209 48.8451 149.239 48.8451 148.541C48.8451 147.986 48.1024 147.8 47.2265 148.134C46.4705 148.423 46.4666 148.437 47.0181 148.856C47.54 149.253 47.4896 149.271 46.3154 149.107C45.6197 149.009 44.1651 148.839 43.0829 148.727C40.362 148.447 39.7653 147.935 40.9302 146.88C41.4004 146.454 41.5568 146.45 42.6369 146.831C44.5481 147.506 49.0327 146.884 51.0589 145.663C52.8206 144.601 54.0653 144.14 56.9966 143.463C59.2005 142.955 61.494 142.026 61.494 141.642C61.494 141.519 62.1228 140.748 62.8913 139.929C64.4949 138.219 65.0981 138.354 65.7622 140.573C66.4592 142.901 67.874 142.468 71.6341 138.777C75.7726 134.714 78.1613 128.083 76.0256 126.586C74.5065 125.521 68.8022 127.543 68.8022 129.146C68.8022 129.658 67.171 130.746 66.6841 130.559C65.5684 130.13 66.5799 128.302 68.5005 127.275C70.4862 126.214 71.5343 124.546 73.1244 119.917C74.4529 116.05 74.1142 112.878 71.9478 108.894C70.6922 106.585 64.5859 103.984 64.5859 105.758C64.5859 106.424 64.0809 106.523 63.2987 106.01C62.7816 105.671 62.0124 105.529 60.7521 105.541C59.2326 105.555 58.8994 105.47 58.6498 105.003C58.2004 104.163 54.3777 102.509 53.3567 102.714C52.7743 102.83 52.0894 102.661 51.0529 102.144C50.2013 101.719 49.0965 101.407 48.4386 101.404C47.8119 101.402 46.5028 101.212 45.5294 100.983C43.6805 100.546 36.6032 101.784 31.98 103.353C31.1297 103.641 30.0404 103.961 29.5594 104.063C29.0145 104.179 28.5663 104.509 28.3708 104.939C28.1775 105.363 27.8216 105.628 27.4449 105.628C26.2665 105.628 23.2892 108.32 23.2739 109.399C23.2698 109.694 22.9719 110.327 22.6121 110.806C21.75 111.953 20.9976 113.505 21.3037 113.505C21.4374 113.505 21.6249 113.378 21.7204 113.223C21.9919 112.784 22.7031 112.893 22.8992 113.405C23.0007 113.669 22.8955 114.001 22.6536 114.178C21.6866 114.889 21.0394 123.207 21.7352 125.982C21.9549 126.858 21.9595 126.859 22.8546 126.272C23.7134 125.709 23.8105 126.309 23.1258 127.949C22.3427 129.824 23.1369 132.297 25.0942 134.078C25.6663 134.599 26.3004 135.346 26.5034 135.738C27.5527 137.765 28.7307 137.447 28.1686 135.287C27.62 133.179 27.399 127.367 27.861 127.201C28.8672 126.837 29.1455 127.518 28.9757 129.925C28.6764 134.169 30.7386 138.999 33.0736 139.522C34.0598 139.743 35.7379 141.77 35.5452 142.508C35.4442 142.894 35.6976 143.368 36.3596 144.031C38.089 145.761 37.4706 146.99 35.573 145.594C33.8461 144.323 31.9362 144.892 31.0377 146.946C30.6593 147.811 27.7648 151.74 27.0983 152.294C26.4132 152.863 26.5409 153.169 27.4637 153.169C28.0013 153.169 28.3429 152.998 28.4458 152.677C28.5326 152.406 28.9206 151.817 29.308 151.367C29.6954 150.918 30.5499 149.79 31.207 148.862C33.2762 145.94 34.2542 145.291 35.0835 146.291C35.3907 146.661 35.2461 146.929 34.1216 148.071C32.8632 149.35 32.2969 150.095 29.7867 153.771C29.191 154.643 28.4839 156.099 28.2156 157.006C27.9472 157.912 27.5196 159.034 27.2653 159.498C26.6661 160.592 26.4676 165.976 26.8769 170.035C27.1976 173.216 27.0728 173.704 25.9384 173.704C24.9888 173.704 24.7842 170.638 24.9264 158.539C24.9344 157.856 25.147 156.758 25.3989 156.098C26.0498 154.392 25.8151 154.072 24.6614 155.092C24.126 155.566 22.7369 156.766 21.5744 157.759C14.4934 163.809 15.0162 172.014 22.3538 169.991C24.0785 169.516 24.3538 170.142 22.8058 171.02C19.0648 173.142 12.8653 170.711 13.5604 167.396C13.6601 166.92 13.8351 165.771 13.9494 164.843C14.2736 162.209 17.1546 157.951 18.6129 157.951C18.8011 157.951 19.595 157.286 20.3772 156.474C21.1593 155.662 22.3833 154.491 23.0972 153.872C23.8111 153.253 24.8605 151.924 25.4292 150.918C26.9231 148.277 27.561 147.504 29.7547 145.675C31.5159 144.207 31.6983 143.961 31.5444 143.259C31.4205 142.695 31.4961 142.432 31.8171 142.308C32.9058 141.89 31.1703 140.22 28.8035 139.409L27.173 138.85L25.9927 139.891C25.3435 140.464 24.7491 141.009 24.6718 141.104C21.595 144.863 13.7178 139.612 10.9716 131.97L10.208 129.845L10.8276 129.059C11.1683 128.627 11.7919 127.662 12.2134 126.915C12.9578 125.595 14.0377 124.757 14.9929 124.757C15.7476 124.757 18.2068 123.806 18.2068 123.514C18.2068 123.366 17.9457 122.968 17.6265 122.628C16.0823 120.983 16.3456 116.7 18.2538 112.424C18.6918 111.442 19.0501 110.531 19.0501 110.398C19.0501 109.295 23.2295 104.482 25.0294 103.513C25.8376 103.078 26.8564 102.427 27.2934 102.065C27.7304 101.704 28.2525 101.409 28.4536 101.409C28.6547 101.409 28.9685 101.229 29.1509 101.009C29.3334 100.789 29.9731 100.526 30.5726 100.424C31.6834 100.237 32.5422 99.369 32.5422 98.4347C32.5422 98.1021 32.4045 98.0317 32.0503 98.1833C30.3832 98.8968 28.7521 98.1662 29.4051 96.9984C29.6588 96.5447 29.493 96.4273 27.9547 95.9723C26.9994 95.6897 25.9964 95.39 25.7259 95.3064C25.1418 95.1257 25.0737 95.8967 25.5287 97.5365C25.9913 99.2034 25.0289 100.407 24.1149 99.3052C23.8861 99.0292 23.7565 97.6349 23.7291 95.1559C23.6904 91.6409 23.0887 89.7077 22.7576 92.0347C22.7097 92.3716 22.4883 92.7985 22.2657 92.9834C22.0431 93.1683 21.8609 93.532 21.8609 93.7915C21.8609 94.051 21.7086 94.4158 21.5225 94.6021C21.3363 94.7884 21.213 95.3719 21.2485 95.8988L21.313 96.8567L19.5491 97.0932C17.6356 97.3497 17.2793 97.9509 18.0264 99.6623C18.2527 100.181 18.1924 100.423 17.7186 100.897C16.5743 102.042 16.3271 101.491 16.1608 97.4232C16.0764 95.3604 15.9219 93.3562 15.8173 92.9694C15.7128 92.5826 15.5557 91.9497 15.4683 91.5629C15.3809 91.1761 14.4798 90.0628 13.4658 89.0889L11.6222 87.3181L11.7208 85.7132C11.8661 83.3501 11.8479 83.1381 11.3411 81.2952C10.8418 79.4793 10.7592 75.8949 11.2043 75.3582C11.4918 75.0114 11.5383 73.179 11.4286 66.5266C11.3216 60.0433 11.326 50.1142 11.4395 42.1937C11.4971 38.171 11.4609 34.0569 11.3591 33.0512C11.0872 30.3655 10.5746 18.1604 10.506 12.7396C10.4558 8.7716 10.3724 7.95838 9.96988 7.51326C8.99882 6.43941 9.47837 5.74577 11.4608 5.35673C12.9475 5.06497 18.7755 3.25788 19.8934 2.74202C20.7743 2.33551 27.5971 2.0798 34.6503 2.18894C36.726 2.22106 45.3105 1.68943 46.915 1.4294C48.6802 1.14333 75.394 0.804739 87.916 0.909715C91.2398 0.937579 94.7815 0.892891 95.7864 0.810386C103.131 0.20744 127.222 -0.113373 135.841 0.276986C139.029 0.421364 141.623 0.383819 143.634 0.164191C147.351 -0.241775 147.978 -0.00985581 149.095 2.18435L149.844 3.65474L149.892 17.0362C149.918 24.396 150.02 30.5474 150.118 30.7061C150.216 30.8648 150.362 38.6823 150.444 48.0785C150.525 57.4746 150.658 65.2707 150.74 65.4031C150.821 65.5355 150.773 65.715 150.633 65.8019C150.287 66.0157 150.498 84.9666 150.859 86.1837C151.195 87.3149 150.84 88.1872 150.043 88.1872C149.748 88.1872 149.433 88.3065 149.343 88.4523C149.253 88.598 148.613 88.7879 147.921 88.8742C147.229 88.9605 146.107 89.1002 145.427 89.1846C144.008 89.3609 144.045 89.2618 143.598 94.0946C143.462 95.5645 143.274 96.9569 143.181 97.189C143.087 97.4211 142.946 99.5098 142.867 101.831C142.666 107.757 142.623 108.158 142.158 108.452C140.941 109.222 140.718 108.274 141.015 103.606C141.497 96.0455 141.405 90.719 140.792 90.719C140.149 90.719 139.517 91.4244 139.78 91.8496C139.885 92.0208 139.744 92.4132 139.465 92.7216C139.067 93.162 139.025 93.3897 139.271 93.7839C139.701 94.4737 139.408 94.8223 138.09 95.187C136.447 95.6415 136.341 95.6082 135.527 94.3759C134.324 92.5578 133.737 94.7457 134.597 97.8425C135.098 99.6479 133.869 100.96 132.793 99.7689C132.411 99.3471 132.327 98.6114 132.327 95.681C132.327 93.1337 132.206 91.8161 131.904 91.0929L131.48 90.0784L130.007 90.2556C129.196 90.353 127.802 90.4339 126.908 90.4352C125.846 90.4368 125.251 90.5596 125.19 90.7893C125.139 90.9827 124.869 91.8293 124.59 92.6707C124.31 93.5121 124.061 94.9542 124.035 95.8754C124 97.1126 123.859 97.645 123.493 97.9129C122.567 98.5905 122.162 98.1051 122.33 96.5199C122.666 93.3532 122.649 92.8288 122.208 92.8288C121.896 92.8288 121.787 93.1568 121.787 94.0931C121.787 95.6974 118.624 97.0239 118.094 95.6418C117.983 95.3535 117.533 95.2198 116.671 95.2198C115.638 95.2198 115.383 95.1161 115.26 94.6457C114.985 93.5947 114.519 94.2488 114.498 95.7154C114.475 97.3458 114.046 98.0446 113.398 97.507C113.056 97.2227 112.742 95.3463 112.615 92.8288C112.478 90.0953 112.415 90.0777 103.516 90.263C83.5046 90.6797 78.8273 90.7901 73.4401 90.9728C70.1936 91.0829 64.5016 91.1331 60.7913 91.0843C57.0809 91.0355 53.0966 91.01 51.9371 91.0276C50.7776 91.0452 46.7645 91.0917 43.0191 91.1309L36.2093 91.2021L35.3119 92.0802C34.5048 92.8699 34.4476 93.0309 34.7432 93.6803C35.1758 94.6304 35.158 94.9385 34.6706 94.9385C34.3955 94.9385 34.2092 95.4188 34.0787 96.4644C33.8372 98.3986 33.9643 98.5933 35.2811 98.307C38.961 97.5069 46.0813 97.4364 48.5641 98.1755C48.796 98.2445 49.4916 98.3749 50.11 98.4653C53.7013 98.9903 55.8929 99.8543 58.2852 101.688L59.9953 102.999L63.2041 102.933C72.8254 102.733 78.0647 108.596 75.8625 117.099C75.5351 118.363 75.2672 119.707 75.2672 120.086C75.2672 120.465 74.9503 121.152 74.563 121.613C74.1757 122.074 73.7776 122.857 73.6782 123.355L73.4975 124.259L74.9685 124.056C76.585 123.834 77.434 124.355 78.6468 126.316C79.9041 128.349 77.2784 135.643 74.1954 138.682C71.6327 141.207 68.9321 143.323 68.2707 143.323C68.1468 143.323 67.6405 143.525 67.1457 143.772C66.026 144.331 65.0857 144.117 64.59 143.19C64.2032 142.467 63.0286 142.208 62.4637 142.722C62.1342 143.022 58.955 144.195 56.2149 145.028C53.7806 145.768 53.8325 145.929 56.5776 146.153C61.8563 146.585 65.1173 153.358 65.8472 165.406C66.1214 169.931 66.2394 170.087 68.5139 168.926C72.0121 167.14 76.5122 168.44 77.7166 171.584C79.3745 175.913 77.9972 181.564 74.9122 183.091C74.1025 183.491 73.0644 184.123 72.6053 184.495L71.7704 185.171L72.2666 186.746C73.0004 189.076 72.1208 190.263 69.9214 189.911C69.0419 189.77 68.8437 189.831 68.7278 190.274C68.4505 191.336 67.3259 191.778 66.0355 191.333C64.7063 190.874 64.589 190.937 64.577 192.106C64.5661 193.165 64.0855 193.842 63.069 194.229C62.2167 194.553 62.2946 194.553 60.9455 194.235ZM70.9947 182.031C71.7264 181.66 72.8514 181.215 73.4946 181.041C75.6211 180.468 76.9004 178.075 76.5714 175.286C76.1083 171.36 70.4301 169.313 66.989 171.831C66.4625 172.216 66.4617 172.279 66.9533 174.623C67.2707 176.137 67.3858 177.437 67.2655 178.15C67.1338 178.931 67.2068 179.535 67.5019 180.106C67.7367 180.56 67.8647 181.177 67.7863 181.477C67.6809 181.881 67.8493 182.104 68.4338 182.335C69.549 182.774 69.5231 182.778 70.9947 182.031ZM23.4351 139.413C23.8478 139.088 24.5404 138.822 24.9742 138.822C26.3414 138.822 26.1522 138.352 23.8777 136.095C21.6713 133.906 21.2988 133.215 21.2988 131.308C21.2988 128.271 16.4508 126.694 13.9258 128.908C10.4914 131.921 19.8375 142.245 23.4351 139.413ZM18.8382 135.201C15.7514 132.63 14.9683 131.186 16.5604 131.001C17.1849 130.928 17.3893 131.101 17.8893 132.126C18.4571 133.29 19.4432 134.477 20.7039 135.514C21.0311 135.783 21.2988 136.132 21.2988 136.288C21.2988 136.902 20.4103 136.51 18.8382 135.201ZM20.3118 119.783C20.3568 118.264 20.4845 116.673 20.5956 116.247C20.8442 115.295 20.3456 115.202 19.8415 116.107C19.2231 117.217 19.4336 123.342 20.0683 122.707C20.1572 122.618 20.2668 121.302 20.3118 119.783ZM136.965 91.0224C135.593 90.4768 134.168 90.3669 134.557 90.8369C134.801 91.131 135.367 91.2755 136.227 91.2637C137.166 91.2508 137.371 91.1839 136.965 91.0224ZM27.6232 88.3298C29.668 88.5688 37.7889 88.7634 43.9261 88.7206C46.3997 88.7033 48.7397 88.6997 49.1262 88.7126C49.5127 88.7254 53.8294 88.7853 58.7189 88.8456C63.6084 88.9059 67.7589 89.048 67.9422 89.1614C68.1255 89.2748 68.5208 89.1453 68.8207 88.8737C69.3502 88.3941 89.1875 88.1786 89.9404 88.6443C90.0688 88.7237 91.7845 88.6555 93.7531 88.4926C95.7217 88.3298 99.6092 88.2146 102.392 88.2365C109.158 88.2899 114.54 88.2745 114.97 88.2004C115.164 88.1672 116.018 88.1594 116.868 88.1831C117.718 88.2067 120.501 88.0716 123.052 87.8828C125.603 87.6939 129.207 87.5645 131.063 87.5951C133.362 87.633 135.062 87.5052 136.403 87.1933C137.512 86.9356 139.387 86.7541 140.699 86.7777C142.12 86.8033 143.544 86.6537 144.353 86.3936C145.082 86.1592 145.995 85.9289 146.382 85.8818C147.004 85.8059 147.091 85.6518 147.141 84.5302C147.173 83.834 147.329 82.125 147.49 80.7326C147.651 79.3401 147.785 76.1121 147.788 73.5593C147.792 71.0064 147.859 62.1453 147.938 53.8679C148.201 26.236 148.169 17.319 147.799 14.3444C147.606 12.7972 147.472 10.0019 147.501 8.13269C147.586 2.60644 147.098 1.63739 144.671 2.51085C143.9 2.78835 142.971 2.9303 142.527 2.83835C140.633 2.44593 121.482 2.79073 119.497 3.25298C118.47 3.49233 117.81 3.50574 117.219 3.29934C116.726 3.12735 116.227 3.11017 115.995 3.2572C115.455 3.59941 114.405 3.57483 113.357 3.19542C112.676 2.94893 111.334 2.98911 107.434 3.37283C102.425 3.86559 92.0249 3.98075 85.2457 3.61851C80.3796 3.35849 72.2618 3.53475 71.6491 3.91373C71.4605 4.03037 67.802 4.08312 63.519 4.03093C49.6879 3.86239 42.0431 4.0323 35.2125 4.65976C31.3748 5.01233 27.383 5.2146 25.3898 5.15748L22.032 5.06127L21.8339 5.76453C21.5299 6.84439 21.5471 23.6397 21.8573 28.5503C22.0088 30.9485 22.2004 35.8854 22.2831 39.5213C22.449 46.8162 22.5482 48.5658 22.961 51.4768C23.5865 55.8878 23.8754 63.4644 23.6956 70.7462C23.2729 87.8694 23.4587 90.0894 25.1999 88.7144C25.8379 88.2107 26.1629 88.1591 27.6232 88.3298ZM30.1906 83.3609C29.456 82.2381 29.4127 82.0187 29.593 80.3339C29.6999 79.3349 29.7647 75.8512 29.7371 72.5924C29.7094 69.3336 29.6957 66.3508 29.7066 65.964C29.8009 62.6047 29.6706 53.3225 29.4894 50.4948C29.3369 48.1157 29.3726 46.2082 29.5999 44.5874C29.7845 43.2709 29.9087 41.8772 29.8759 41.4904C29.3802 35.6472 29.1354 10.4118 29.5702 9.97661C29.7207 9.82603 30.9506 9.70282 32.3034 9.70282C34.0738 9.70282 34.8259 9.5961 34.9877 9.3219C35.3997 8.62377 36.6442 8.45952 46.737 7.7713C49.3652 7.59209 53.1073 7.32374 55.0529 7.17497C58.309 6.92599 62.7637 7.14664 64.0238 7.61932C64.5343 7.81084 81.2972 8.17014 84.2619 8.05312C85.4214 8.00735 88.4571 7.85302 91.0079 7.71016C93.5588 7.56731 97.9226 7.38574 100.705 7.30667C103.488 7.2276 106.081 7.08857 106.468 6.99771C107.314 6.79873 108.764 6.67556 112.567 6.47952L115.434 6.33174L115.806 7.10304C116.167 7.85016 116.25 7.87433 118.465 7.87433C119.723 7.87433 120.832 7.95328 120.929 8.04976C121.577 8.68965 122.256 17.631 122.07 23.0649C121.946 26.6971 121.661 51.1142 121.61 62.4695C121.587 67.6975 121.678 70.5616 121.881 70.9408C122.189 71.5167 121.654 78.1467 121.268 78.5326C121.175 78.6256 121.317 79.071 121.583 79.5224C122.193 80.5557 121.223 81.5649 119.96 81.2119C119.152 80.9863 118.78 80.9891 113.073 81.2639C110.754 81.3755 107.529 81.7073 105.905 82.0012C104.282 82.2952 101.563 82.6016 99.8621 82.6823C98.1616 82.763 95.5686 82.8897 94.0999 82.9638C91.7743 83.0811 84.8488 83.3366 78.078 83.555C76.9185 83.5924 71.642 83.7004 66.3523 83.795C61.0626 83.8895 55.8766 84.0853 54.8278 84.2301C53.7701 84.376 48.7899 84.4277 43.6451 84.3462C38.5434 84.2654 33.9265 84.1955 33.3854 84.1911C32.8444 84.1866 32.0824 84.2704 31.6921 84.3772C31.0767 84.5457 30.8775 84.4109 30.1906 83.3609ZM57.1372 82.4519C71.9676 82.3145 79.4563 82.0001 85.4328 81.2638C87.5199 81.0067 89.8459 80.8922 91.0545 80.9871C94.0851 81.2251 94.08 81.2252 99.7216 80.8997C102.582 80.7347 105.744 80.4138 106.749 80.1867C107.754 79.9596 109.75 79.6881 111.185 79.5833C113.104 79.4431 113.972 79.2524 114.468 78.8623C114.961 78.4739 115.681 78.3142 117.156 78.2663L119.17 78.2008L119.607 77.0756C120.063 75.9023 120.447 53.4876 120.072 49.9679C119.807 47.4838 119.375 48.694 119.22 52.3528C119.007 57.3809 118.901 58.8699 118.591 61.1818C117.913 66.2368 117.605 67.6515 116.679 69.9617C116.139 71.3094 115.771 72.5329 115.863 72.6806C115.954 72.8282 115.711 73.3261 115.324 73.7871C114.936 74.248 114.619 74.7078 114.619 74.8089C114.619 75.1446 113.087 76.3988 112.179 76.8063C111.687 77.0271 111.205 77.3363 111.108 77.4933C111.011 77.6504 110.615 77.7789 110.228 77.7789C109.272 77.7789 106.674 78.6441 106.327 79.0781C106.116 79.3427 103.4 79.473 95.3648 79.6042C80.9192 79.8402 77.1117 79.9675 75.1266 80.2811C74.199 80.4276 71.0705 80.5598 68.1744 80.5749C65.2783 80.59 62.5953 80.7216 62.2122 80.8674C61.7765 81.0331 60.6469 81.0332 59.1958 80.8676C57.6684 80.6933 56.5128 80.7006 55.8131 80.8892C55.0702 81.0894 54.5783 81.0835 54.1789 80.8695C53.7648 80.6478 52.9908 80.6537 51.3683 80.8912C50.1368 81.0714 48.7174 81.1354 48.2142 81.0334C47.7109 80.9314 46.6667 80.7346 45.8937 80.5961C41.5967 79.8261 40.0543 79.4325 37.9961 78.5804C35.5856 77.5825 34.7909 77.0751 34.7909 76.5337C34.7909 76.3509 34.3651 75.7884 33.8447 75.2836C32.599 74.0753 31.7215 70.7336 32.2227 69.1072C33.0514 66.4181 33.145 44.3894 32.3519 38.6773C32.1049 36.8981 31.9223 34.7734 31.9462 33.9558C31.9903 32.442 31.546 31.1076 31.1433 31.5442C31.0209 31.6768 31.0272 33.2018 31.1574 34.9331C31.7527 42.8539 31.8566 50.3217 31.4003 52.3845C31.2557 53.0385 31.2173 55.1904 31.315 57.1667C31.4128 59.1429 31.4529 61.1396 31.4043 61.6038C31.3556 62.0679 31.3229 63.3338 31.3316 64.4168C31.3403 65.4999 31.3759 69.6047 31.4107 73.5387L31.474 80.6913L32.2675 81.4855C33.024 82.2426 33.1837 82.28 35.6828 82.2841C37.1247 82.2864 38.4515 82.3814 38.6312 82.495C38.8109 82.6087 40.5818 82.6684 42.5664 82.6276C44.5511 82.5868 51.1079 82.5078 57.1372 82.4519ZM51.5154 78.5926C54.4528 78.5714 60.0183 78.5568 63.8832 78.5603C80.1663 78.5747 82.9487 78.4641 91.4296 77.4657C92.8209 77.3019 95.7302 77.0598 97.8945 76.9276C102.767 76.6302 102.68 76.6341 104.232 76.6414C104.934 76.6447 105.922 76.529 106.426 76.3842C106.931 76.2395 107.514 76.1868 107.723 76.2671C107.932 76.3474 108.488 76.214 108.958 75.9707C109.428 75.7275 110.047 75.5284 110.334 75.5284C111.998 75.5284 115.141 69.3388 116.333 63.7136C117.136 59.9229 118.125 43.1852 117.87 37.6928C117.777 35.6814 117.653 31.6939 117.595 28.8316C117.451 21.7676 116.364 16.1729 115.135 16.1729C114.21 16.1729 113.525 15.6466 112.93 14.4801C112.318 13.2791 111.347 12.8221 110.351 13.2665C109.688 13.563 105.55 13.2202 104.539 12.785C104.108 12.5994 103.759 12.5951 103.546 12.7728C103.341 12.9428 103.06 12.9476 102.804 12.7854C102.103 12.3416 100.364 12.4631 100.17 12.9695C100.045 13.2967 99.8979 13.3417 99.6441 13.1309C99.4506 12.9701 98.535 12.8298 97.6096 12.819C93.0637 12.7662 74.5116 13.0998 74.1428 13.241C73.9109 13.3299 70.6222 13.5141 66.8346 13.6505C63.047 13.7869 58.7464 14.0371 57.2777 14.2064C53.6225 14.628 52.7751 14.6102 51.7965 14.0915C50.8239 13.576 49.698 13.5244 48.2434 13.9287C47.6413 14.0961 46.9472 14.1139 46.5569 13.972C44.0511 13.0606 38.0343 15.4124 37.0758 17.678C37.0184 17.8136 36.7338 18.1282 36.4433 18.3771C36.1529 18.626 35.9152 19.0591 35.9152 19.3396C35.9152 19.6201 35.7095 20.1639 35.458 20.5479C35.1208 21.0629 35.0458 21.5957 35.1722 22.5775C35.2758 23.3825 35.1717 24.6872 34.9084 25.8779C34.2939 28.659 34.0581 36.9262 34.4954 40.3602C35.0178 44.4629 35.03 44.6815 35.1924 52.8833C35.2752 57.0607 35.4032 60.8583 35.477 61.3225C35.5507 61.7866 35.4761 62.9892 35.3109 63.9949C34.3394 69.9128 35.1783 74.5192 37.5215 76.1325C40.0977 77.9064 42.5119 78.8099 44.4262 78.7164C45.388 78.6695 48.5781 78.6137 51.5154 78.5926ZM120.499 33.4732C120.509 30.843 120.384 26.8555 120.221 24.612C120.059 22.3686 119.831 18.2216 119.715 15.3964C119.468 9.37376 119.746 9.82402 116.025 9.42434C113.568 9.16049 112.996 9.00703 112.611 8.50857C112.022 7.74581 108.2 7.49815 104.54 7.98559C101.264 8.42202 98.8866 8.5645 92.4134 8.71245C89.3987 8.78135 85.384 8.96773 83.4917 9.12664C81.5994 9.28554 78.7534 9.40032 77.1673 9.3817C72.6539 9.32873 70.463 9.32412 64.7265 9.35552C61.7891 9.37162 56.9826 9.39188 54.0452 9.40059C51.1079 9.40929 48.048 9.52406 47.2456 9.65562C46.4431 9.78719 43.6334 9.88327 41.0018 9.86915C36.4213 9.84457 36.2136 9.86755 36.1364 10.4061C36.0675 10.8867 35.7496 11.002 33.955 11.1975C31.2003 11.4975 31.2398 11.4457 31.1884 14.8315C31.1643 16.4202 31.0874 20.1255 31.0175 23.0654C30.84 30.5328 31.1836 32.5874 31.981 28.8269C32.2188 27.7057 32.2817 26.2477 32.164 24.5882L31.9846 22.0587L33.1366 19.7487C33.7702 18.4782 34.7672 16.7979 35.3522 16.0148C35.9372 15.2316 36.4623 14.3492 36.5191 14.054C36.582 13.7271 37.0061 13.4016 37.604 13.2214C38.1438 13.0588 39.0042 12.6593 39.516 12.3338C40.715 11.5711 44.9766 11.1749 46.4085 11.6931C47.1577 11.9642 47.5596 11.9637 48.3125 11.6906C49.5813 11.2303 70.1208 10.9819 75.1266 11.3663C77.4564 11.5452 79.7995 11.5518 81.5916 11.3845C83.1376 11.2402 87.6279 11.0712 91.5701 11.009C97.3049 10.9185 98.9862 10.8039 99.9804 10.4356C100.968 10.0695 101.947 10.0006 104.759 10.0993C113.155 10.3939 115.238 10.768 115.624 12.0507C115.725 12.3839 116.102 12.973 116.463 13.3598C118.407 15.4428 119.181 20.2214 119.54 32.3479C119.797 41.0412 120.47 41.83 120.499 33.4732ZM129.517 81.0961C126.109 79.3686 125.184 75.2911 127.427 71.8823C128.915 69.621 129.022 69.5671 131.625 69.768C137.741 70.2402 138.572 70.4678 139.854 72.0246C144.184 77.2821 136.059 84.4125 129.517 81.0961ZM135.797 79.8252C137.727 79.1328 139.176 77.4861 138.916 76.2815C138.328 73.5567 135.71 70.7151 135.696 72.7857C135.688 74.0376 135.189 74.3509 134.833 73.3282C133.773 70.2878 128.652 73.1426 128.678 76.7597C128.696 79.4839 132.356 81.0596 135.797 79.8252ZM130.364 65.0539C127.048 63.3785 126.039 57.3782 128.652 54.8729C129.527 54.0344 133.223 53.0391 135.501 53.0288C139.428 53.011 142.769 59.1948 140.808 62.8529C139.528 65.2421 133.324 66.5496 130.364 65.0539ZM137.003 63.4552C141.527 60.6942 139.957 55.1904 134.633 55.1496L132.571 55.1338L131.439 56.3471L130.306 57.5604L130.506 59.5821C130.69 61.4388 131.116 62.7423 131.835 63.6433C132.303 64.2298 135.951 64.097 137.003 63.4552ZM131.984 42.8839C126.312 42.0159 125.125 37.4025 129.291 32.4228C132.373 28.7384 137.066 28.7999 140.971 32.5759C145.16 36.626 138.795 43.9264 131.984 42.8839ZM136.327 41.309C140.312 39.7726 141.029 35.7176 137.713 33.4629C134.875 31.5324 130.132 34.0622 129.878 37.6427C129.639 41.0011 132.664 42.7211 136.327 41.309ZM129.657 24.6382C125.877 22.7648 124.413 16.1891 127.196 13.5885C132.556 8.58065 140.76 11.6408 140.76 18.6478C140.76 23.3716 134.22 26.9 129.657 24.6382ZM136.739 22.8635C141.997 19.8005 137.46 10.1043 132.086 12.9225C127.472 15.3426 128.112 24.0634 132.834 23.1181C133.266 23.0318 133.803 23.0774 134.027 23.2197C134.697 23.6437 135.603 23.5247 136.739 22.8635ZM21.0026 87.8051C21.1521 87.4114 21.1445 84.7515 20.9839 81.2647C20.8349 78.0324 20.6577 72.2231 20.59 68.3551C20.5223 64.4872 20.2779 58.9806 20.0468 56.1183C19.3242 47.1669 18.9983 39.1986 18.8968 28.0022C18.8429 22.0536 18.7095 14.7291 18.6004 11.7255L18.4021 6.26459L17.3168 6.41028C16.7198 6.49041 15.6595 6.78931 14.9605 7.0745L13.6897 7.59303L13.7561 14.485C13.8047 19.5283 13.9193 21.5243 14.1834 21.9259C14.6012 22.5613 14.3889 25.2518 13.8493 26.1592C13.6167 26.5505 13.5454 28.0499 13.6151 31.0821C13.6702 33.4802 13.7108 35.8221 13.7052 36.2862C13.6997 36.7504 13.6423 41.181 13.5777 46.132C13.3474 63.7894 13.3953 76.0027 13.7089 79.6074C13.8839 81.6187 14.1138 84.2138 14.2197 85.3741L14.4122 87.4839L15.8176 87.6759C17.4622 87.9006 20.5616 88.3846 20.6733 88.4342C20.7158 88.4531 20.8639 88.17 21.0026 87.8051ZM13.161 192.99C12.4354 192.115 13.2394 192.067 29.1231 192.034C43.2583 192.004 47.207 191.869 51.8668 191.26C53.5639 191.038 53.9244 191.595 52.6322 192.442C51.9944 192.86 50.2498 192.914 35.5562 192.968C26.5552 193.002 17.9238 193.129 16.3754 193.25C13.8926 193.445 13.5131 193.415 13.161 192.99ZM89.8836 190.637C87.5336 189.348 88.7844 188.254 92.1323 188.672C93.2918 188.816 95.1891 188.871 96.3486 188.792C97.508 188.714 100.439 188.529 102.861 188.381C110.51 187.913 109.015 186.869 100.846 186.973C92.3418 187.082 81.6021 186.897 81.3365 186.637C80.6438 185.958 81.8072 185.519 84.2963 185.519C87.0545 185.519 87.122 185.473 86.0326 184.335C84.6719 182.914 85.255 182.748 91.8512 182.682C97.9176 182.622 101.826 179.95 95.9402 179.887C93.3709 179.859 90.3268 176.744 90.846 174.674C91.135 173.521 91.7802 173.897 92.5819 175.685C93.282 177.247 94.4396 178.486 95.1973 178.486C95.6818 178.486 95.5692 177.822 94.6365 175.181C93.5143 172.002 92.9289 169.564 93.0331 168.502C93.1446 167.365 93.9269 167.364 94.0531 168.5C94.1047 168.964 94.3105 169.534 94.5105 169.766C94.7105 169.998 94.934 170.849 95.007 171.656C95.1858 173.63 95.6652 174.222 96.4248 173.406C97.21 172.563 97.9246 173.219 97.484 174.379C96.7149 176.403 97.743 177.564 100.986 178.336C102.465 178.687 102.723 179.086 101.637 179.343C100.192 179.684 101.287 182.144 102.884 182.144C103.611 182.144 104.071 182.418 105.063 183.442C106.444 184.869 107.162 185.238 108.551 185.238C109.058 185.238 109.88 185.441 110.376 185.689C110.92 185.96 111.692 186.09 112.317 186.014C112.887 185.945 114.176 186.125 115.181 186.413C117.498 187.078 124.977 187.101 127.83 186.452C128.835 186.224 130.29 185.935 131.063 185.812C133.69 185.392 137.754 182.445 138.972 180.077C141.035 176.065 139.316 168.891 136.798 171.011C135.022 172.507 133.475 172.723 125.019 172.649C118.808 172.596 116.891 172.67 115.259 173.029C110.2 174.143 99.0483 170.667 100.464 168.417C100.932 167.673 101.591 167.693 102.628 168.485C105.5 170.677 111.899 171.956 116.054 171.167C116.886 171.009 119.274 170.889 121.363 170.899C127.719 170.93 129.274 170.883 131.906 170.585C135.018 170.232 136.963 169.37 136.969 168.342C136.973 167.761 137.125 167.644 137.968 167.572C138.519 167.526 139.32 167.181 139.765 166.799C140.675 166.016 141.041 165.932 141.041 166.506C141.041 166.778 141.663 167.007 143.021 167.236C148.175 168.107 151.373 163.819 148.279 160.186C145.954 157.457 144.473 155.635 143.785 154.659C143.435 154.163 142.675 153.491 142.095 153.164C140.821 152.446 140.778 151.983 141.884 150.876C142.978 149.781 143.569 149.932 144.312 151.499C144.645 152.202 145.406 153.138 146.001 153.579C148.074 155.114 148.969 156.135 149.956 158.092C150.503 159.175 151.187 160.397 151.477 160.808C154.326 164.845 146.531 170.815 141.556 168.405C138.97 167.152 138.665 168.458 140.965 170.936C142.059 172.115 142.597 176.098 142.026 178.8C141.537 181.115 138.996 184.546 136.682 186.016C136.213 186.314 136.485 186.349 138.371 186.233C145.43 185.801 148.485 185.903 148.58 186.577C148.651 187.077 148.833 187.201 149.431 187.155C150.873 187.045 151.39 188.063 150.365 188.992C149.686 189.607 147.701 189.61 147.193 188.997C146.747 188.459 138.018 188.607 128.252 189.317C125.314 189.531 120.887 189.788 118.414 189.889C111.67 190.163 110.64 190.218 105.905 190.559C96.8251 191.213 90.9846 191.242 89.8836 190.637ZM108.997 189.747C113.15 189.455 114.619 189.231 114.619 188.889C114.619 188.352 107.97 188.242 106.187 188.749C105.955 188.815 103.996 189.006 101.834 189.174C97.4157 189.518 96.556 189.673 96.8096 190.084C96.994 190.382 101.877 190.247 108.997 189.747ZM139.074 187.925C142.951 187.684 143.909 187.526 143.686 187.166C143.273 186.497 131.203 187.368 131.203 188.067C131.203 188.309 133.602 188.266 139.074 187.925ZM102.353 185.903C103.961 185.682 103.976 185.526 102.462 184.771C100.084 183.586 99.343 183.481 94.9866 183.715C92.721 183.837 90.6942 183.904 90.4826 183.864C88.6884 183.525 86.2559 185.265 87.9863 185.649C89.7378 186.038 100.042 186.22 102.353 185.903ZM42.3633 190.593C41.8585 190.294 41.6036 190.289 25.0934 190.251C10.8659 190.218 11.8056 190.206 9.70401 190.458C7.70736 190.698 7.4296 190.063 9.2178 189.347C10.5982 188.794 18.3023 188.721 24.0866 189.206C27.4905 189.491 28.4085 189.446 27.9792 189.017C27.8915 188.929 26.9534 188.679 25.8944 188.46C22.8781 187.839 22.7042 187.781 22.7042 187.4C22.7042 187.202 22.135 185.934 21.4393 184.581C20.1219 182.018 19.7752 179.814 20.4273 178.148C20.5663 177.793 20.8202 176.978 20.9914 176.337C21.4188 174.739 22.6482 174.126 24.5656 174.556C25.5495 174.777 26.1094 174.768 26.7006 174.523C27.3654 174.247 27.8474 174.292 29.5302 174.788C34.2061 176.164 38.4683 176.306 46.3966 175.352C48.4815 175.101 49.2271 175.099 49.4738 175.346C50.2961 176.169 47.4038 178.149 46.4891 177.389C46.2633 177.201 45.5399 177.199 44.3349 177.381C38.062 178.332 32.2936 178.368 28.8124 177.477C27.9204 177.248 26.356 177.034 25.3357 177L23.4808 176.939L23.1049 178.346C22.1381 181.963 23.1636 184.748 25.9448 186.056C30.6938 188.29 45.4328 189.049 50.3505 187.312C52.1839 186.665 52.5778 186.769 52.3461 187.84C51.9546 189.649 51.2896 190.215 49.3422 190.399C45.4418 190.765 42.7789 190.839 42.3633 190.593ZM90.6991 181.602C87.0991 181.423 86.1318 181.059 86.9251 180.182C87.5239 179.52 87.5022 179.464 86.1222 178.13C84.5708 176.63 84.1651 175.065 84.5734 172.155C85.169 167.911 85.2312 167.666 85.7372 167.569C86.2687 167.467 87.1938 168.217 86.9743 168.573C86.7615 168.917 86.1639 173.198 86.2051 174.082C86.2747 175.572 88.2075 178.001 90.1536 179.043C91.4151 179.719 94.5391 180.737 95.3635 180.741C96.3867 180.746 97.0525 181.124 96.7896 181.549C96.5904 181.872 96.2115 181.875 90.6991 181.602ZM87.0727 167.331C83.07 166.006 81.8721 164.09 82.6828 160.311C83.0387 158.652 85.307 155.701 86.2264 155.701C86.3752 155.701 86.903 155.254 87.3993 154.708C88.4346 153.57 96.6621 149.356 97.3411 149.617C98.3015 149.986 96.78 151.375 94.6621 152.063C93.2801 152.512 89.9429 154.25 89.0952 154.963C88.7047 155.291 87.941 155.94 87.3981 156.404C82.2821 160.778 83.5637 165.402 89.8778 165.351C94.2132 165.315 99.0849 163.57 102.473 160.838C104.1 159.526 105.062 159.289 105.062 160.202C105.062 160.511 104.96 160.764 104.835 160.764C104.71 160.764 104.367 160.94 104.072 161.156C102.721 162.145 105.094 162.886 106.795 162.006C108.08 161.341 108.498 161.921 107.492 162.972C106.334 164.182 104.899 164.567 103.596 164.018C102.166 163.415 101.473 163.467 100.048 164.282C99.3779 164.665 98.1762 165.163 97.3781 165.388C96.58 165.613 94.8742 166.183 93.5876 166.656C91.3439 167.48 88.4335 167.782 87.0727 167.331ZM138.428 165.651C138.324 165.546 138.616 164.8 139.077 163.992C140.354 161.759 139.785 157.897 137.793 155.283C136.88 154.085 136.9 153.233 137.848 152.873C139.088 152.401 140.653 154.865 141.173 158.108C141.271 158.718 141.487 159.753 141.653 160.409C142.074 162.07 139.321 166.545 138.428 165.651ZM98.9367 152.08C97.7896 151.37 98.2443 149.5 99.9715 147.824L100.696 147.121L98.4521 146.957C94.6792 146.682 91.5214 144.512 89.6844 140.932C88.9575 139.515 88.2983 134.505 88.7439 133.784C89.1685 133.096 90.256 133.556 90.5065 134.529C90.8176 135.736 91.6845 135.933 93.9715 135.313C97.7467 134.29 99.0221 131.656 98.8103 125.32C98.6198 119.617 99.7793 114.691 102.086 111.402C104.75 107.605 106.666 105.841 108.828 105.199C109.598 104.97 110.772 104.519 111.438 104.197C114.051 102.931 117.624 102.531 120.057 103.233C120.854 103.462 122.352 103.694 123.387 103.747C124.421 103.801 125.466 104.009 125.709 104.211C126.269 104.676 127.715 105.52 128.846 106.043C131.692 107.358 135.582 110.893 136.446 112.949C136.637 113.403 137.183 115.136 137.659 116.799L138.525 119.823L138.496 126.792C138.462 134.888 138.78 136.555 140.717 138.442C142.967 140.634 144.939 141.055 146.323 139.639C147.237 138.703 148.353 138.69 148.345 139.615C148.324 141.961 146.935 144.586 144.416 147.038C138.985 152.325 135.749 152.482 128.03 147.834C127.057 147.248 126.533 147.181 121.986 147.055C116.983 146.916 115.301 147.066 111.051 148.032C109.396 148.408 108.891 148.428 108.265 148.143C104.948 146.631 101.472 147.925 100.752 150.941C100.568 151.708 99.4605 152.404 98.9367 152.08ZM38.2852 142.579C35.47 138.781 35.0057 138.094 34.4745 136.935C34.1759 136.284 33.8004 135.67 33.64 135.571C32.0694 134.599 31.4617 132.071 32.7988 132.071C33.4683 132.071 33.5837 132.228 35.4552 135.692C36.3224 137.297 37.7021 139.386 38.5214 140.334C40.659 142.807 41.0899 143.549 40.6781 144.045C40.101 144.741 39.7113 144.502 38.2852 142.579ZM49.3003 143.409C48.1416 137.641 48.0403 135.32 48.9234 134.772C49.7888 134.235 50.0727 135.876 50.3529 143.035C50.4026 144.306 49.5419 144.612 49.3003 143.409ZM52.3458 143.584C52.2432 143.417 52.4128 143.006 52.7226 142.669C53.5965 141.72 54.1561 139.659 54.3568 136.651C54.5665 133.51 55.0235 132.071 55.8111 132.071C56.6366 132.071 56.6398 132.142 55.9662 135.507C55.6167 137.253 55.3261 139.11 55.3204 139.633C55.3008 141.438 52.9495 144.561 52.3458 143.584ZM45.3584 142.804C45.267 142.656 45.008 141.571 44.7828 140.393C44.5576 139.215 44.0488 137.605 43.6521 136.815C42.8838 135.284 43.019 134.603 44.0912 134.603C44.9039 134.603 46.0091 138.343 46.4154 142.468C46.4618 142.939 45.609 143.21 45.3584 142.804ZM41.6282 141.846C41.0107 141.007 40.3749 139.397 40.0034 137.733C39.7824 136.743 39.3327 135.653 38.9987 135.297C38.3118 134.565 38.3484 133.824 39.0939 133.367C40.039 132.788 41.04 135.083 41.5347 138.963C41.6728 140.046 41.871 141.217 41.9752 141.565C42.1843 142.263 42.0281 142.39 41.6282 141.846ZM57.6575 140.081C57.5582 139.821 57.6139 139.525 57.7813 139.421C58.7405 138.828 60.0165 131.563 59.2453 131.086C58.8384 130.835 58.9004 130.076 59.3704 129.556C59.6434 129.254 59.8619 127.949 60.037 125.574C60.3055 121.933 60.6247 120.819 61.3991 120.819C61.8836 120.819 61.8875 120.707 61.2192 126.023C61.0441 127.415 60.8573 129.314 60.804 130.242C60.5754 134.224 59.8148 138.96 59.2912 139.662C58.6483 140.525 57.9012 140.716 57.6575 140.081ZM68.9078 138.129C68.8122 137.88 68.9195 137.459 69.1461 137.194C69.3728 136.929 69.9769 135.953 70.4887 135.025C71.0005 134.096 71.5679 133.147 71.7496 132.915C71.9313 132.683 72.3008 131.894 72.5707 131.161C73.2861 129.22 73.9528 128.469 74.5322 128.95C75.397 129.668 74.6406 132.238 73.5148 132.406C72.8441 132.507 72.8475 132.501 70.9572 136.474C70.0857 138.305 70.0209 138.398 69.5442 138.491C69.2898 138.542 69.0034 138.379 68.9078 138.129ZM63.1853 132.001C63.1937 130.871 64.5178 126.392 64.9799 125.93C66.4671 124.442 66.0276 127.835 64.1754 132.141C63.8706 132.85 63.1796 132.752 63.1853 132.001ZM68.2522 122.988C68.2239 121.816 70.1984 118.918 70.7801 119.278C71.345 119.627 70.9985 120.448 69.6545 121.944C68.6879 123.02 68.2607 123.338 68.2522 122.988Z" fill="url(#paint0_linear_70_45)"/>
<defs>
<linearGradient id="paint0_linear_70_45" x1="-11.4402" y1="15.4307" x2="161.795" y2="205.731" gradientUnits="userSpaceOnUse">
<stop stop-color="#318FD5"/>
<stop offset="1" stop-color="#D5313A"/>
</linearGradient>
</defs>
</svg>
